<?xml version="1.0" standalone="no"?>
<!DOCTYPE svg PUBLIC "-//W3C//DTD SVG 20010904//EN"
 "http://www.w3.org/TR/2001/REC-SVG-20010904/DTD/svg10.dtd">
<svg version="1.0" xmlns="http://www.w3.org/2000/svg"
 width="1280.000000pt" height="520.000000pt" viewBox="0 0 1280.000000 520.000000"
 preserveAspectRatio="xMidYMid meet">
<metadata>
Created by potrace 1.15, written by Peter Selinger 2001-2017
</metadata>
<g transform="translate(0.000000,520.000000) scale(0.100000,-0.100000)"
fill="#e41801" stroke="none">
<path d="M3219 5016 c-89 -24 -243 -126 -313 -208 -20 -23 -71 -108 -112 -188
-42 -80 -80 -150 -85 -157 -6 -6 -49 -13 -102 -15 -75 -3 -103 -8 -151 -31
-81 -38 -146 -89 -204 -161 -98 -122 -112 -162 -207 -601 -21 -93 -45 -180
-54 -191 -74 -96 -321 -397 -385 -469 -44 -49 -150 -160 -235 -245 -274 -274
-358 -378 -474 -597 -79 -149 -263 -390 -305 -399 -109 -24 -194 -58 -244 -98
-38 -31 -65 -45 -97 -49 -51 -6 -59 -12 -67 -53 -8 -41 20 -72 76 -85 51 -12
100 -6 188 23 58 18 65 19 81 4 31 -28 102 -31 178 -8 64 20 182 86 198 111
15 25 418 211 431 199 3 -4 -105 -163 -243 -360 -34 -48 -95 -142 -137 -210
-75 -123 -203 -279 -272 -330 -20 -15 -61 -32 -93 -38 -31 -6 -92 -20 -136
-32 -44 -11 -116 -24 -159 -28 -112 -10 -133 -43 -75 -116 41 -51 48 -55 122
-56 34 0 68 -5 76 -11 7 -7 30 -12 50 -13 20 -1 51 -8 69 -15 25 -11 39 -11
63 -2 23 9 37 9 52 1 11 -6 55 -11 96 -11 73 -1 83 2 244 71 232 100 346 137
505 168 293 56 380 102 400 214 11 65 -1 129 -37 187 -45 74 -64 136 -58 191
6 54 90 222 182 362 134 206 409 561 547 707 88 93 153 178 179 236 7 15 15
27 18 27 8 0 32 -63 87 -229 60 -180 110 -294 284 -641 137 -271 153 -310 204
-480 85 -283 167 -435 326 -603 182 -194 365 -270 655 -270 247 0 383 37 680
185 325 164 425 197 591 197 161 1 252 -27 533 -163 130 -63 283 -131 340
-150 147 -51 399 -112 586 -141 88 -13 187 -32 220 -41 180 -47 221 -56 335
-69 294 -34 339 -36 620 -24 l275 12 150 -27 c198 -37 414 -45 575 -22 208 29
386 19 589 -35 245 -66 701 -81 1004 -35 51 8 187 30 302 50 494 82 525 86
675 86 150 -1 244 -9 343 -31 52 -12 61 -11 95 6 20 11 92 74 158 140 108 106
122 125 128 162 3 23 16 54 29 70 74 89 135 233 93 217 -9 -3 -19 -17 -22 -30
-4 -17 -13 -24 -29 -24 -13 0 -27 -5 -30 -10 -12 -19 -24 -10 -28 23 l-3 32
-13 -32 c-8 -19 -20 -33 -30 -33 -9 0 -22 -5 -29 -12 -8 -8 -14 -4 -22 18 -47
124 -75 185 -96 205 -28 26 -30 20 -9 -22 15 -28 15 -31 -5 -56 -15 -19 -19
-35 -15 -55 8 -33 9 -33 -47 -9 -53 22 -133 38 -124 23 3 -5 19 -12 36 -15 22
-5 28 -11 23 -22 -10 -28 19 -64 74 -91 30 -15 53 -33 53 -42 0 -13 -3 -12
-21 4 -32 29 -135 32 -208 5 -67 -24 -80 -25 -178 -15 -62 6 -82 4 -135 -16
-35 -12 -87 -38 -117 -59 -53 -35 -56 -36 -140 -34 -47 2 -131 8 -186 14 -97
10 -143 18 -495 80 -91 16 -222 32 -292 36 l-128 6 6 24 c4 14 0 33 -10 48
-11 16 -14 34 -10 51 l7 26 20 -20 20 -20 29 21 c17 12 36 34 44 49 15 30 19
94 6 102 -5 3 -7 29 -5 58 4 42 -1 65 -22 110 -14 32 -30 60 -35 63 -5 3 -7
19 -4 35 4 20 -1 45 -17 77 -13 26 -22 55 -21 63 2 11 1 12 -6 2 -6 -10 -13
-8 -27 8 -16 18 -17 23 -5 30 21 13 -12 76 -51 98 -72 39 -80 51 -74 96 6 36
3 45 -21 69 -26 27 -43 33 -94 39 -15 2 -29 12 -35 25 -5 13 -16 23 -23 23 -8
0 -27 9 -42 20 -35 25 -104 50 -137 50 -14 0 -37 8 -51 19 -99 69 -259 112
-411 109 l-106 -1 127 -6 c70 -4 130 -10 134 -14 4 -4 -49 -7 -117 -6 -107 1
-136 -3 -214 -26 -49 -15 -98 -30 -108 -33 -14 -3 -15 -7 -6 -13 9 -5 5 -10
-14 -14 -15 -4 -24 -11 -21 -16 3 -5 -5 -13 -18 -18 -21 -9 -20 -10 12 -11
l35 -2 -42 -11 c-23 -7 -45 -16 -50 -21 -4 -5 1 -6 12 -3 41 11 185 17 185 8
0 -23 -67 -61 -108 -61 -63 0 -194 -20 -227 -35 -16 -7 -70 -16 -120 -19 -49
-3 -144 -19 -210 -36 -137 -35 -285 -51 -285 -30 0 28 -63 141 -105 188 -72
80 -186 122 -373 138 -75 6 -90 11 -155 51 -40 25 -130 79 -202 120 -234 136
-498 312 -545 364 -48 53 -62 57 -106 34 -16 -8 -49 -15 -74 -15 -98 0 -214
-44 -275 -105 -68 -69 -90 -155 -61 -241 9 -26 14 -49 13 -51 -2 -1 -24 -6
-50 -9 -40 -6 -50 -3 -78 20 -17 15 -49 36 -69 46 -22 11 -40 29 -43 42 -4 13
-26 44 -51 70 -37 39 -53 48 -102 58 -70 15 -142 8 -192 -19 -20 -11 -50 -22
-65 -26 -16 -3 -32 -16 -39 -31 -7 -14 -29 -34 -50 -45 -22 -11 -42 -27 -45
-37 -4 -9 -23 -32 -43 -52 -19 -19 -47 -51 -61 -70 l-26 -34 -74 17 c-41 9
-108 27 -149 39 -63 18 -104 22 -256 23 -203 3 -219 7 -249 72 -10 20 -22 73
-27 117 -40 368 -168 859 -332 1276 -32 80 -111 253 -176 385 -65 132 -154
314 -197 405 -156 324 -262 460 -424 539 -147 71 -278 95 -380 67z m9100
-4359 c8 -11 1 -21 -35 -46 -34 -25 -62 -35 -117 -43 -99 -14 -116 -13 -140
10 l-20 20 39 11 c22 6 75 18 119 27 44 9 87 20 95 25 22 12 46 11 59 -4z"/>
<path d="M9278 2033 c7 -3 16 -2 19 1 4 3 -2 6 -13 5 -11 0 -14 -3 -6 -6z"/>
</g>
</svg>
